<svg width="880" height="560" viewBox="0 0 880 560" fill="none" xmlns="http://www.w3.org/2000/svg">
  <defs>
    <linearGradient id="bg" x1="36" y1="30" x2="844" y2="530" gradientUnits="userSpaceOnUse">
      <stop stop-color="#EDF8FF"/>
      <stop offset="1" stop-color="#ECFDF5"/>
    </linearGradient>
    <linearGradient id="cardA" x1="128" y1="172" x2="376" y2="336" gradientUnits="userSpaceOnUse">
      <stop stop-color="#0EA5E9"/>
      <stop offset="1" stop-color="#0369A1"/>
    </linearGradient>
    <linearGradient id="cardB" x1="420" y1="172" x2="670" y2="336" gradientUnits="userSpaceOnUse">
      <stop stop-color="#14B8A6"/>
      <stop offset="1" stop-color="#0F766E"/>
    </linearGradient>
  </defs>

  <rect x="16" y="16" width="848" height="528" rx="36" fill="url(#bg)"/>
  <rect x="88" y="132" width="312" height="280" rx="30" fill="url(#cardA)"/>
  <rect x="432" y="132" width="312" height="280" rx="30" fill="url(#cardB)"/>

  <text x="136" y="214" fill="#FFFFFF" font-family="Arial, Helvetica, sans-serif" font-size="30" font-weight="700">Facts</text>
  <text x="136" y="250" fill="#DDF5FF" font-family="Arial, Helvetica, sans-serif" font-size="22" font-weight="600">Early testing helps</text>
  <text x="136" y="278" fill="#DDF5FF" font-family="Arial, Helvetica, sans-serif" font-size="22" font-weight="600">protect long-term</text>
  <text x="136" y="306" fill="#DDF5FF" font-family="Arial, Helvetica, sans-serif" font-size="22" font-weight="600">speech clarity.</text>

  <text x="478" y="214" fill="#FFFFFF" font-family="Arial, Helvetica, sans-serif" font-size="30" font-weight="700">Myths</text>
  <text x="478" y="250" fill="#D5FFF8" font-family="Arial, Helvetica, sans-serif" font-size="22" font-weight="600">Modern devices are</text>
  <text x="478" y="278" fill="#D5FFF8" font-family="Arial, Helvetica, sans-serif" font-size="22" font-weight="600">discreet, smart, and</text>
  <text x="478" y="306" fill="#D5FFF8" font-family="Arial, Helvetica, sans-serif" font-size="22" font-weight="600">lifestyle friendly.</text>

  <path d="M236 430C304 402 390 402 576 430" stroke="#22D3EE" stroke-width="10" stroke-linecap="round" opacity="0.75"/>
  <path d="M248 468C316 446 396 446 588 468" stroke="#2DD4BF" stroke-width="8" stroke-linecap="round" opacity="0.8"/>
</svg>

