<svg width="1400" height="560" viewBox="0 0 1400 560" fill="none" xmlns="http://www.w3.org/2000/svg">
  <defs>
    <linearGradient id="bg" x1="56" y1="28" x2="1332" y2="520" gradientUnits="userSpaceOnUse">
      <stop stop-color="#EDF7FF"/>
      <stop offset="0.5" stop-color="#F8FBFF"/>
      <stop offset="1" stop-color="#E9F7F4"/>
    </linearGradient>
    <linearGradient id="panel" x1="890" y1="90" x2="1260" y2="470" gradientUnits="userSpaceOnUse">
      <stop stop-color="#0EA5E9"/>
      <stop offset="1" stop-color="#0369A1"/>
    </linearGradient>
  </defs>

  <rect x="20" y="20" width="1360" height="520" rx="44" fill="url(#bg)"/>
  <circle cx="210" cy="146" r="96" fill="#E2F1FF"/>
  <circle cx="1220" cy="438" r="118" fill="#DFF6F2"/>

  <rect x="92" y="114" width="724" height="336" rx="30" fill="#FFFFFF" stroke="#DCE9F4" stroke-width="4"/>
  <rect x="132" y="160" width="290" height="22" rx="11" fill="#DBEAFE"/>
  <rect x="132" y="198" width="360" height="22" rx="11" fill="#E0F2FE"/>
  <rect x="132" y="236" width="320" height="22" rx="11" fill="#E0E7FF"/>
  <rect x="132" y="292" width="180" height="98" rx="20" fill="#F3F8FE" stroke="#D7E3F2" stroke-width="3"/>
  <rect x="334" y="292" width="180" height="98" rx="20" fill="#EFFCF8" stroke="#D0F1E5" stroke-width="3"/>
  <rect x="536" y="292" width="236" height="98" rx="20" fill="#FFF7ED" stroke="#FFDCC5" stroke-width="3"/>

  <rect x="874" y="84" width="442" height="392" rx="34" fill="url(#panel)"/>
  <path d="M1114 170C1053 170 1004 219 1004 280V306C1004 342 983 373 950 390C907 412 878 454 878 503C878 578 939 638 1014 638C1091 638 1152 576 1152 499V459C1152 424 1177 398 1212 398C1262 398 1302 358 1302 308V298C1302 227 1244 170 1173 170H1114Z" transform="translate(18 -46)" fill="#F9C6A9"/>
  <path d="M1078 286C1015 258 932 258 852 286" transform="translate(22 -38)" stroke="#BBF7D0" stroke-width="10" stroke-linecap="round"/>
  <path d="M1090 350C1019 323 944 323 870 350" transform="translate(22 -38)" stroke="#A7F3D0" stroke-width="8" stroke-linecap="round"/>
  <path d="M1103 409C1035 387 967 387 893 409" transform="translate(22 -38)" stroke="#6EE7B7" stroke-width="7" stroke-linecap="round"/>

  <text x="132" y="432" fill="#133B68" font-family="Arial, Helvetica, sans-serif" font-size="48" font-weight="700">Clinical Precision. Luxury Care.</text>
  <text x="132" y="468" fill="#4B6888" font-family="Arial, Helvetica, sans-serif" font-size="26" font-weight="600">Audiology services, hearing tests, and premium hearing aids.</text>
</svg>

