<svg width="1200" height="900" viewBox="0 0 1200 900" fill="none" xmlns="http://www.w3.org/2000/svg">
  <defs>
    <linearGradient id="bg" x1="119" y1="68" x2="1084" y2="832" gradientUnits="userSpaceOnUse">
      <stop stop-color="#F8FCFF"/>
      <stop offset="0.55" stop-color="#EEF7FB"/>
      <stop offset="1" stop-color="#E2F0F8"/>
    </linearGradient>
    <linearGradient id="panel" x1="163" y1="178" x2="1004" y2="741" gradientUnits="userSpaceOnUse">
      <stop stop-color="#FFFFFF"/>
      <stop offset="1" stop-color="#F3F9FD"/>
    </linearGradient>
    <linearGradient id="teal" x1="0" y1="0" x2="1" y2="1">
      <stop stop-color="#0E7490"/>
      <stop offset="1" stop-color="#0891B2"/>
    </linearGradient>
    <linearGradient id="gold" x1="0" y1="0" x2="1" y2="1">
      <stop stop-color="#C29B76"/>
      <stop offset="1" stop-color="#E0C1A2"/>
    </linearGradient>
    <linearGradient id="charcoal" x1="0" y1="0" x2="1" y2="1">
      <stop stop-color="#1E293B"/>
      <stop offset="1" stop-color="#475569"/>
    </linearGradient>
    <filter id="shadow" x="126" y="141" width="948" height="635" filterUnits="userSpaceOnUse" color-interpolation-filters="sRGB">
      <feFlood flood-opacity="0" result="BackgroundImageFix"/>
      <feColorMatrix in="SourceAlpha" type="matrix" values="0 0 0 0 0 0 0 0 0 0 0 0 0 0 0 0 0 0 127 0" result="hardAlpha"/>
      <feOffset dy="18"/>
      <feGaussianBlur stdDeviation="18"/>
      <feColorMatrix type="matrix" values="0 0 0 0 0.0313725 0 0 0 0 0.266667 0 0 0 0 0.466667 0 0 0 0.14 0"/>
      <feBlend mode="normal" in2="BackgroundImageFix" result="effect1_dropShadow_0_1"/>
      <feBlend mode="normal" in="SourceGraphic" in2="effect1_dropShadow_0_1" result="shape"/>
    </filter>
  </defs>

  <rect width="1200" height="900" rx="42" fill="url(#bg)"/>
  <circle cx="1026" cy="148" r="150" fill="#D7F0FA"/>
  <circle cx="191" cy="759" r="126" fill="#E5F5FB"/>
  <circle cx="925" cy="762" r="204" fill="#DDEEF8"/>

  <g filter="url(#shadow)">
    <rect x="162" y="159" width="876" height="563" rx="36" fill="url(#panel)"/>
  </g>

  <rect x="214" y="212" width="258" height="456" rx="30" fill="white" stroke="#D9EAF4" stroke-width="2"/>
  <rect x="471" y="212" width="258" height="456" rx="30" fill="white" stroke="#D9EAF4" stroke-width="2"/>
  <rect x="728" y="212" width="258" height="456" rx="30" fill="white" stroke="#D9EAF4" stroke-width="2"/>

  <rect x="243" y="238" width="76" height="34" rx="17" fill="#E0F2FE"/>
  <text x="281" y="261" text-anchor="middle" font-family="Arial, sans-serif" font-size="17" font-weight="700" fill="#0369A1">ITC</text>

  <rect x="500" y="238" width="76" height="34" rx="17" fill="#ECFEFF"/>
  <text x="538" y="261" text-anchor="middle" font-family="Arial, sans-serif" font-size="17" font-weight="700" fill="#0F766E">CIC</text>

  <rect x="757" y="238" width="76" height="34" rx="17" fill="#F1F5F9"/>
  <text x="795" y="261" text-anchor="middle" font-family="Arial, sans-serif" font-size="17" font-weight="700" fill="#334155">IIC</text>

  <text x="600" y="108" text-anchor="middle" font-family="Arial, sans-serif" font-size="28" font-weight="700" fill="#0F172A">Latest Custom Hearing Aid Styles</text>
  <text x="600" y="144" text-anchor="middle" font-family="Arial, sans-serif" font-size="18" font-weight="500" fill="#475569">Discreet in-ear solutions for comfort, clarity, and nearly invisible wear</text>

  <g transform="translate(264 324)">
    <path d="M58 18C91 -7 139 7 157 44C177 85 166 132 126 164C91 191 37 188 16 144C-7 96 13 52 58 18Z" fill="url(#gold)"/>
    <path d="M40 60C71 27 123 31 145 73C163 109 149 153 109 171C77 185 37 171 23 136C14 112 19 85 40 60Z" fill="#EAD2BD"/>
    <rect x="85" y="56" width="18" height="72" rx="9" fill="#5B463A"/>
    <rect x="65" y="148" width="56" height="16" rx="8" fill="#D7B398"/>
    <circle cx="68" cy="96" r="6.5" fill="#EFE4D7"/>
  </g>

  <g transform="translate(529 339)">
    <path d="M54 23C91 -5 140 14 153 56C166 95 149 145 112 170C76 193 29 186 11 144C-7 101 10 56 54 23Z" fill="url(#teal)"/>
    <path d="M50 58C76 36 115 39 131 68C149 102 138 140 106 160C75 179 35 171 21 142C8 114 19 84 50 58Z" fill="#72C7D8"/>
    <rect x="78" y="53" width="16" height="62" rx="8" fill="#0F3A44"/>
    <circle cx="60" cy="95" r="6" fill="#DDF6FA"/>
  </g>

  <g transform="translate(788 356)">
    <path d="M44 19C77 -6 120 9 131 43C143 81 128 124 97 145C65 166 23 160 8 126C-8 89 6 48 44 19Z" fill="url(#charcoal)"/>
    <path d="M40 50C63 32 96 36 108 61C123 91 113 125 86 141C58 158 26 148 14 122C4 100 11 71 40 50Z" fill="#64748B"/>
    <rect x="62" y="48" width="13" height="52" rx="6.5" fill="#0F172A"/>
    <circle cx="49" cy="86" r="5.2" fill="#E2E8F0"/>
  </g>

  <text x="343" y="585" text-anchor="middle" font-family="Arial, sans-serif" font-size="28" font-weight="700" fill="#0F172A">ITC</text>
  <text x="343" y="617" text-anchor="middle" font-family="Arial, sans-serif" font-size="18" font-weight="500" fill="#475569">In The Canal</text>
  <text x="343" y="646" text-anchor="middle" font-family="Arial, sans-serif" font-size="15" font-weight="500" fill="#64748B">More controls, custom comfort</text>

  <text x="600" y="585" text-anchor="middle" font-family="Arial, sans-serif" font-size="28" font-weight="700" fill="#0F172A">CIC</text>
  <text x="600" y="617" text-anchor="middle" font-family="Arial, sans-serif" font-size="18" font-weight="500" fill="#475569">Completely In Canal</text>
  <text x="600" y="646" text-anchor="middle" font-family="Arial, sans-serif" font-size="15" font-weight="500" fill="#64748B">Small profile with natural placement</text>

  <text x="857" y="585" text-anchor="middle" font-family="Arial, sans-serif" font-size="28" font-weight="700" fill="#0F172A">IIC</text>
  <text x="857" y="617" text-anchor="middle" font-family="Arial, sans-serif" font-size="18" font-weight="500" fill="#475569">Invisible In Canal</text>
  <text x="857" y="646" text-anchor="middle" font-family="Arial, sans-serif" font-size="15" font-weight="500" fill="#64748B">Ultra-discreet fit for cosmetic appeal</text>

  <rect x="431" y="758" width="338" height="54" rx="27" fill="#0F172A"/>
  <text x="600" y="792" text-anchor="middle" font-family="Arial, sans-serif" font-size="20" font-weight="700" fill="white">Custom Styles • ITC • CIC • IIC</text>
</svg>
