<?xml version='1.0' encoding='UTF-8'?>
<svg width="33mm" height="33mm" version="1.1" viewBox="0 0 33 33" xmlns="http://www.w3.org/2000/svg"><path d="M4,4H5V5H4zM5,4H6V5H5zM6,4H7V5H6zM7,4H8V5H7zM8,4H9V5H8zM9,4H10V5H9zM10,4H11V5H10zM12,4H13V5H12zM13,4H14V5H13zM14,4H15V5H14zM15,4H16V5H15zM17,4H18V5H17zM18,4H19V5H18zM19,4H20V5H19zM20,4H21V5H20zM22,4H23V5H22zM23,4H24V5H23zM24,4H25V5H24zM25,4H26V5H25zM26,4H27V5H26zM27,4H28V5H27zM28,4H29V5H28zM4,5H5V6H4zM10,5H11V6H10zM13,5H14V6H13zM14,5H15V6H14zM15,5H16V6H15zM18,5H19V6H18zM22,5H23V6H22zM28,5H29V6H28zM4,6H5V7H4zM6,6H7V7H6zM7,6H8V7H7zM8,6H9V7H8zM10,6H11V7H10zM18,6H19V7H18zM22,6H23V7H22zM24,6H25V7H24zM25,6H26V7H25zM26,6H27V7H26zM28,6H29V7H28zM4,7H5V8H4zM6,7H7V8H6zM7,7H8V8H7zM8,7H9V8H8zM10,7H11V8H10zM12,7H13V8H12zM13,7H14V8H13zM15,7H16V8H15zM16,7H17V8H16zM17,7H18V8H17zM18,7H19V8H18zM20,7H21V8H20zM22,7H23V8H22zM24,7H25V8H24zM25,7H26V8H25zM26,7H27V8H26zM28,7H29V8H28zM4,8H5V9H4zM6,8H7V9H6zM7,8H8V9H7zM8,8H9V9H8zM10,8H11V9H10zM12,8H13V9H12zM13,8H14V9H13zM16,8H17V9H16zM18,8H19V9H18zM19,8H20V9H19zM22,8H23V9H22zM24,8H25V9H24zM25,8H26V9H25zM26,8H27V9H26zM28,8H29V9H28zM4,9H5V10H4zM10,9H11V10H10zM12,9H13V10H12zM15,9H16V10H15zM16,9H17V10H16zM22,9H23V10H22zM28,9H29V10H28zM4,10H5V11H4zM5,10H6V11H5zM6,10H7V11H6zM7,10H8V11H7zM8,10H9V11H8zM9,10H10V11H9zM10,10H11V11H10zM12,10H13V11H12zM14,10H15V11H14zM16,10H17V11H16zM18,10H19V11H18zM20,10H21V11H20zM22,10H23V11H22zM23,10H24V11H23zM24,10H25V11H24zM25,10H26V11H25zM26,10H27V11H26zM27,10H28V11H27zM28,10H29V11H28zM12,11H13V12H12zM13,11H14V12H13zM15,11H16V12H15zM16,11H17V12H16zM18,11H19V12H18zM4,12H5V13H4zM8,12H9V13H8zM10,12H11V13H10zM11,12H12V13H11zM12,12H13V13H12zM13,12H14V13H13zM14,12H15V13H14zM19,12H20V13H19zM21,12H22V13H21zM22,12H23V13H22zM23,12H24V13H23zM24,12H25V13H24zM25,12H26V13H25zM28,12H29V13H28zM5,13H6V14H5zM12,13H13V14H12zM13,13H14V14H13zM15,13H16V14H15zM18,13H19V14H18zM19,13H20V14H19zM20,13H21V14H20zM21,13H22V14H21zM24,13H25V14H24zM25,13H26V14H25zM27,13H28V14H27zM5,14H6V15H5zM6,14H7V15H6zM7,14H8V15H7zM8,14H9V15H8zM9,14H10V15H9zM10,14H11V15H10zM12,14H13V15H12zM13,14H14V15H13zM14,14H15V15H14zM15,14H16V15H15zM16,14H17V15H16zM18,14H19V15H18zM19,14H20V15H19zM23,14H24V15H23zM25,14H26V15H25zM26,14H27V15H26zM4,15H5V16H4zM6,15H7V16H6zM7,15H8V16H7zM9,15H10V16H9zM13,15H14V16H13zM14,15H15V16H14zM16,15H17V16H16zM18,15H19V16H18zM19,15H20V16H19zM26,15H27V16H26zM27,15H28V16H27zM5,16H6V17H5zM7,16H8V17H7zM8,16H9V17H8zM10,16H11V17H10zM15,16H16V17H15zM17,16H18V17H17zM18,16H19V17H18zM21,16H22V17H21zM22,16H23V17H22zM23,16H24V17H23zM25,16H26V17H25zM26,16H27V17H26zM27,16H28V17H27zM28,16H29V17H28zM4,17H5V18H4zM5,17H6V18H5zM6,17H7V18H6zM7,17H8V18H7zM8,17H9V18H8zM11,17H12V18H11zM12,17H13V18H12zM16,17H17V18H16zM18,17H19V18H18zM19,17H20V18H19zM20,17H21V18H20zM24,17H25V18H24zM27,17H28V18H27zM6,18H7V19H6zM10,18H11V19H10zM11,18H12V19H11zM14,18H15V19H14zM15,18H16V19H15zM16,18H17V19H16zM17,18H18V19H17zM18,18H19V19H18zM19,18H20V19H19zM23,18H24V19H23zM24,18H25V19H24zM25,18H26V19H25zM26,18H27V19H26zM7,19H8V20H7zM12,19H13V20H12zM15,19H16V20H15zM17,19H18V20H17zM20,19H21V20H20zM21,19H22V20H21zM23,19H24V20H23zM24,19H25V20H24zM26,19H27V20H26zM27,19H28V20H27zM4,20H5V21H4zM5,20H6V21H5zM7,20H8V21H7zM9,20H10V21H9zM10,20H11V21H10zM11,20H12V21H11zM12,20H13V21H12zM16,20H17V21H16zM17,20H18V21H17zM20,20H21V21H20zM21,20H22V21H21zM22,20H23V21H22zM23,20H24V21H23zM24,20H25V21H24zM25,20H26V21H25zM26,20H27V21H26zM12,21H13V22H12zM13,21H14V22H13zM14,21H15V22H14zM17,21H18V22H17zM18,21H19V22H18zM19,21H20V22H19zM20,21H21V22H20zM24,21H25V22H24zM4,22H5V23H4zM5,22H6V23H5zM6,22H7V23H6zM7,22H8V23H7zM8,22H9V23H8zM9,22H10V23H9zM10,22H11V23H10zM12,22H13V23H12zM20,22H21V23H20zM22,22H23V23H22zM24,22H25V23H24zM4,23H5V24H4zM10,23H11V24H10zM14,23H15V24H14zM16,23H17V24H16zM18,23H19V24H18zM20,23H21V24H20zM24,23H25V24H24zM25,23H26V24H25zM26,23H27V24H26zM27,23H28V24H27zM4,24H5V25H4zM6,24H7V25H6zM7,24H8V25H7zM8,24H9V25H8zM10,24H11V25H10zM12,24H13V25H12zM13,24H14V25H13zM15,24H16V25H15zM17,24H18V25H17zM18,24H19V25H18zM20,24H21V25H20zM21,24H22V25H21zM22,24H23V25H22zM23,24H24V25H23zM24,24H25V25H24zM25,24H26V25H25zM26,24H27V25H26zM27,24H28V25H27zM28,24H29V25H28zM4,25H5V26H4zM6,25H7V26H6zM7,25H8V26H7zM8,25H9V26H8zM10,25H11V26H10zM13,25H14V26H13zM16,25H17V26H16zM19,25H20V26H19zM20,25H21V26H20zM21,25H22V26H21zM22,25H23V26H22zM23,25H24V26H23zM26,25H27V26H26zM27,25H28V26H27zM28,25H29V26H28zM4,26H5V27H4zM6,26H7V27H6zM7,26H8V27H7zM8,26H9V27H8zM10,26H11V27H10zM13,26H14V27H13zM14,26H15V27H14zM15,26H16V27H15zM16,26H17V27H16zM17,26H18V27H17zM18,26H19V27H18zM21,26H22V27H21zM22,26H23V27H22zM25,26H26V27H25zM27,26H28V27H27zM4,27H5V28H4zM10,27H11V28H10zM13,27H14V28H13zM15,27H16V28H15zM17,27H18V28H17zM19,27H20V28H19zM21,27H22V28H21zM22,27H23V28H22zM23,27H24V28H23zM24,27H25V28H24zM25,27H26V28H25zM26,27H27V28H26zM27,27H28V28H27zM4,28H5V29H4zM5,28H6V29H5zM6,28H7V29H6zM7,28H8V29H7zM8,28H9V29H8zM9,28H10V29H9zM10,28H11V29H10zM12,28H13V29H12zM14,28H15V29H14zM16,28H17V29H16zM17,28H18V29H17zM19,28H20V29H19zM21,28H22V29H21zM22,28H23V29H22zM26,28H27V29H26zM27,28H28V29H27zM28,28H29V29H28z" id="qr-path" fill="#000000" fill-opacity="1" fill-rule="nonzero" stroke="none"/></svg>